<mxfile host="app.diagrams.net" agent="Mozilla/5.0 (Windows NT 10.0; Win64; x64) AppleWebKit/537.36 (KHTML, like Gecko) Chrome/139.0.0.0 Safari/537.36 Edg/139.0.0.0" version="28.0.6">
  <diagram name="Page-1" id="SJqstyBm8eX_xAzdMlwN">
    <mxGraphModel dx="2058" dy="1146" grid="1" gridSize="10" guides="1" tooltips="1" connect="1" arrows="1" fold="1" page="1" pageScale="1" pageWidth="100000" pageHeight="10000" math="0" shadow="0">
      <root>
        <mxCell id="0" />
        <mxCell id="1" parent="0" />
        <mxCell id="iKdrCHHRz9E105YB1NNE-1" value="VBO" style="rounded=0;whiteSpace=wrap;html=1;fontSize=25;" vertex="1" parent="1">
          <mxGeometry x="300" y="460" width="120" height="60" as="geometry" />
        </mxCell>
        <mxCell id="iKdrCHHRz9E105YB1NNE-2" value="VAO" style="rounded=0;whiteSpace=wrap;html=1;fontSize=25;" vertex="1" parent="1">
          <mxGeometry x="520" y="460" width="120" height="60" as="geometry" />
        </mxCell>
        <mxCell id="iKdrCHHRz9E105YB1NNE-3" value="IBO" style="rounded=0;whiteSpace=wrap;html=1;fontSize=25;" vertex="1" parent="1">
          <mxGeometry x="740" y="460" width="120" height="60" as="geometry" />
        </mxCell>
      </root>
    </mxGraphModel>
  </diagram>
</mxfile>
